<svg width="127" height="34" viewBox="0 0 127 34" fill="none" xmlns="http://www.w3.org/2000/svg">
<g clip-path="url(#clip0)">
<path d="M35.5759 11.6549C36.0141 11.6548 36.4261 11.4842 36.736 11.1743C37.0459 10.8644 37.2165 10.4524 37.2165 10.0143C37.2166 9.57603 37.0459 9.16403 36.736 8.85415C36.4262 8.54427 36.0141 8.37361 35.576 8.37364C35.1378 8.37361 34.7258 8.54431 34.4159 8.85419C34.106 9.16406 33.9354 9.57607 33.9354 10.0143C33.9354 10.4524 34.106 10.8644 34.4159 11.1744C34.7258 11.4842 35.1378 11.6549 35.5759 11.6549ZM34.8728 10.0142C34.8728 9.82642 34.946 9.64985 35.0788 9.51707C35.2115 9.38429 35.3881 9.31113 35.576 9.31113C35.7638 9.3111 35.9403 9.38425 36.0731 9.51703C36.2059 9.64982 36.279 9.82635 36.279 10.0142C36.279 10.202 36.2059 10.3786 36.0731 10.5114C35.9403 10.6442 35.7638 10.7173 35.5759 10.7173C35.3881 10.7173 35.2116 10.6442 35.0788 10.5114C34.946 10.3786 34.8729 10.2021 34.8728 10.0142Z" fill="white" fill-opacity="0.75"/>
<path d="M26.6451 29.4202C26.8161 29.4189 26.973 29.3247 27.0542 29.1742L30.9698 21.9268L34.8854 29.1742C34.9666 29.3247 35.1234 29.419 35.2945 29.4201C35.4654 29.4213 35.6234 29.3294 35.707 29.18L36.7442 27.323C36.8117 27.2023 36.8224 27.058 36.7734 26.9287L33.2719 17.6658L35.3338 13.8495C36.8314 13.9785 38.2739 13.2117 38.9994 11.8687C39.9953 10.0253 39.3059 7.71542 37.4626 6.71949C35.9508 5.90271 34.1252 6.21952 32.9679 7.37677C32.7141 7.63057 32.4925 7.92481 32.3133 8.25636C31.6171 9.54504 31.7275 11.0998 32.5608 12.268L30.9698 13.5746L29.3788 12.268C30.2122 11.0999 30.3225 9.54507 29.6263 8.25633C28.6304 6.41299 26.3204 5.7236 24.4771 6.71949C24.1514 6.8955 23.8545 7.11638 23.5949 7.37601C23.0284 7.94251 22.6492 8.69269 22.527 9.48839C22.4006 10.3113 22.5435 11.1344 22.9402 11.8687C23.6658 13.2117 25.1083 13.9785 26.6059 13.8495L28.6677 17.6658L25.1662 26.9287C25.1173 27.058 25.128 27.2023 25.1954 27.323L26.2326 29.18C26.316 29.3293 26.4741 29.4213 26.6451 29.4202ZM32.1099 14.5917C32.0809 14.515 32.0323 14.4473 31.9689 14.3953L31.7084 14.1813L33.5163 12.6963C33.6163 12.6141 33.678 12.4943 33.6866 12.3652C33.6952 12.236 33.65 12.1091 33.5618 12.0145C32.7237 11.1153 32.5535 9.78415 33.1382 8.70201C33.8885 7.31336 35.6285 6.79414 37.017 7.54429C38.4055 8.29455 38.9248 10.0345 38.1746 11.4231C37.5866 12.5115 36.3737 13.0976 35.1566 12.8815C34.9575 12.8462 34.7583 12.9425 34.6623 13.1203L32.8333 16.5055L32.1099 14.5917ZM27.2774 13.1202C27.1814 12.9424 26.9821 12.8462 26.7831 12.8816C25.566 13.0976 24.3531 12.5115 23.7651 11.4231C23.1679 10.3179 23.3705 8.92624 24.2578 8.03896C24.4532 7.84356 24.677 7.67717 24.9228 7.54432C26.3113 6.79414 28.0513 7.31346 28.8015 8.70201C29.3862 9.78422 29.216 11.1154 28.3779 12.0145C28.2897 12.1092 28.2445 12.2361 28.2531 12.3653C28.2577 12.4343 28.2778 12.5004 28.3104 12.5597C28.3152 12.5742 28.3204 12.5885 28.3266 12.6027L29.5724 15.4321C29.6768 15.669 29.9534 15.7765 30.1903 15.6722C30.4274 15.568 30.5348 15.2913 30.4304 15.0543L29.9411 13.943L31.2772 15.0403L35.8194 27.0563L35.3046 27.978L27.2774 13.1202ZM26.1202 27.0563L29.2574 18.7572L30.437 20.9406L26.6349 27.9779L26.1202 27.0563Z" fill="white" fill-opacity="0.75"/>
<path d="M26.2837 11.7007C26.7218 11.7007 27.1338 11.53 27.4437 11.2201C27.7536 10.9102 27.9242 10.4983 27.9242 10.0601C27.9242 9.62184 27.7536 9.20987 27.4437 8.89999C27.1338 8.59011 26.7218 8.41944 26.2836 8.41948C25.8454 8.41944 25.4334 8.59011 25.1236 8.89999C24.8137 9.20987 24.643 9.62184 24.643 10.0601C24.643 10.9647 25.379 11.7006 26.2837 11.7007ZM25.5805 10.0601C25.5805 9.87229 25.6536 9.69569 25.7864 9.5629C25.9192 9.43012 26.0958 9.357 26.2836 9.35694C26.4714 9.35697 26.648 9.43009 26.7807 9.56287C26.9135 9.69565 26.9866 9.87225 26.9867 10.06C26.9867 10.2478 26.9135 10.4244 26.7807 10.5572C26.6479 10.69 26.4713 10.7632 26.2835 10.7632C25.8959 10.7632 25.5805 10.4478 25.5805 10.0601Z" fill="white" fill-opacity="0.75"/>
<path d="M30.7592 16.9598C30.9962 16.8552 31.1034 16.5785 30.9989 16.3417L30.9927 16.3278C30.8883 16.0909 30.6115 15.9837 30.3747 16.0882C30.32 16.1123 30.2723 16.1456 30.2324 16.1854C30.0996 16.3182 30.0546 16.5241 30.1351 16.7063L30.1412 16.7201C30.2457 16.957 30.5224 17.0643 30.7592 16.9598Z" fill="white" fill-opacity="0.75"/>
</g>
<path d="M14.1628 9.8C15.0295 9.8 15.8211 9.98333 16.5378 10.35C17.2711 10.7 17.8461 11.2 18.2628 11.85C18.6961 12.5 18.9128 13.225 18.9128 14.025C18.9128 16.1417 17.9545 17.475 16.0378 18.025V18.125C18.2211 18.625 19.3128 20.0583 19.3128 22.425C19.3128 23.325 19.0878 24.125 18.6378 24.825C18.2045 25.5083 17.6045 26.0417 16.8378 26.425C16.0711 26.8083 15.2295 27 14.3128 27H2.71279V9.8H14.1628ZM8.23779 16.5H12.0378C12.4045 16.5 12.7045 16.375 12.9378 16.125C13.1878 15.8583 13.3128 15.5333 13.3128 15.15V14.9C13.3128 14.5333 13.1878 14.225 12.9378 13.975C12.6878 13.7083 12.3878 13.575 12.0378 13.575H8.23779V16.5ZM8.23779 23H12.4378C12.8045 23 13.1045 22.875 13.3378 22.625C13.5878 22.3583 13.7128 22.0333 13.7128 21.65V21.4C13.7128 21.0167 13.5878 20.7 13.3378 20.45C13.1045 20.1833 12.8045 20.05 12.4378 20.05H8.23779V23ZM61.5212 15.075C61.5212 16.125 61.2379 17.075 60.6712 17.925C60.1045 18.775 59.2795 19.4 58.1962 19.8L62.0212 27H55.8212L52.7712 20.725H50.7212V27H45.1962V9.8H55.7212C56.9545 9.8 58.0045 10.0417 58.8712 10.525C59.7545 10.9917 60.4129 11.6333 60.8462 12.45C61.2962 13.25 61.5212 14.125 61.5212 15.075ZM55.8962 15.3C55.8962 14.85 55.7462 14.475 55.4462 14.175C55.1462 13.875 54.7795 13.725 54.3462 13.725H50.7212V16.9H54.3462C54.7795 16.9 55.1462 16.75 55.4462 16.45C55.7462 16.1333 55.8962 15.75 55.8962 15.3ZM78.2292 9.8C79.0959 9.8 79.8875 9.98333 80.6042 10.35C81.3375 10.7 81.9125 11.2 82.3292 11.85C82.7625 12.5 82.9792 13.225 82.9792 14.025C82.9792 16.1417 82.0209 17.475 80.1042 18.025V18.125C82.2875 18.625 83.3792 20.0583 83.3792 22.425C83.3792 23.325 83.1542 24.125 82.7042 24.825C82.2709 25.5083 81.6709 26.0417 80.9042 26.425C80.1375 26.8083 79.2959 27 78.3792 27H66.7792V9.8H78.2292ZM72.3042 16.5H76.1042C76.4709 16.5 76.7709 16.375 77.0042 16.125C77.2542 15.8583 77.3792 15.5333 77.3792 15.15V14.9C77.3792 14.5333 77.2542 14.225 77.0042 13.975C76.7542 13.7083 76.4542 13.575 76.1042 13.575H72.3042V16.5ZM72.3042 23H76.5042C76.8709 23 77.1709 22.875 77.4042 22.625C77.6542 22.3583 77.7792 22.0333 77.7792 21.65V21.4C77.7792 21.0167 77.6542 20.7 77.4042 20.45C77.1709 20.1833 76.8709 20.05 76.5042 20.05H72.3042V23ZM88.3622 9.8H103.237V13.925H93.8872V16.3H101.887V20.25H93.8872V22.875H103.412V27H88.3622V9.8ZM124.854 15.075C124.854 16.125 124.571 17.075 124.004 17.925C123.438 18.775 122.613 19.4 121.529 19.8L125.354 27H119.154L116.104 20.725H114.054V27H108.529V9.8H119.054C120.288 9.8 121.338 10.0417 122.204 10.525C123.088 10.9917 123.746 11.6333 124.179 12.45C124.629 13.25 124.854 14.125 124.854 15.075ZM119.229 15.3C119.229 14.85 119.079 14.475 118.779 14.175C118.479 13.875 118.113 13.725 117.679 13.725H114.054V16.9H117.679C118.113 16.9 118.479 16.75 118.779 16.45C119.079 16.1333 119.229 15.75 119.229 15.3Z" fill="white" fill-opacity="0.75"/>
<defs>
<clipPath id="clip0">
<rect width="24" height="24" fill="white" transform="translate(47.9412 16.9706) rotate(135)"/>
</clipPath>
</defs>
</svg>
